# xmcd
#
# Track frame offsets: 
#        150
#        21280
#        39442
#        57255
#        76625
#
# Disc length: 1272 seconds
#
# Revision: 4
# Processed by: cddbd v1.5.2PL0 Copyright (c) Steve Scherf et al.
# Submitted via: ExactAudioCopy v1.3
#
DISCID=2f04f605
DTITLE=R. Kelly - I Can't Sleep Baby (If I)
DYEAR=1997
DGENRE=Hip-Hop
TTITLE0=I Can't Sleep Baby (If I) (Radio Edit)
TTITLE1=I Can't Sleep Baby (If I) (Remix Street Version)
TTITLE2=She's Got That Vibe (Radio Edit No Talk)
TTITLE3=Sex Me (Part I) (Street Radio Edit)
TTITLE4=You Remind Me Of Something
EXTD=
EXTT0=
EXTT1=
EXTT2=
EXTT3=
EXTT4=
PLAYORDER=
